<?xml version="1.0" encoding="UTF-8" standalone="no"?>
<!DOCTYPE svg PUBLIC "-//W3C//DTD SVG 1.1//EN"
 "http://www.w3.org/Graphics/SVG/1.1/DTD/svg11.dtd">
<!-- Generated by graphviz version 2.43.0 (0)
 -->
<!-- Title: %3 Pages: 1 -->
<svg width="182pt" height="404pt"
 viewBox="0.00 0.00 181.99 404.00" xmlns="http://www.w3.org/2000/svg" xmlns:xlink="http://www.w3.org/1999/xlink">
<g id="graph0" class="graph" transform="scale(1 1) rotate(0) translate(4 400)">
<title>%3</title>
<polygon fill="white" stroke="transparent" points="-4,4 -4,-400 177.99,-400 177.99,4 -4,4"/>
<!-- id0 -->
<g id="node1" class="node">
<title>id0</title>
<polygon fill="none" stroke="black" points="114.19,-396 87.19,-378 114.19,-360 141.19,-378 114.19,-396"/>
<text text-anchor="middle" x="114.19" y="-374.3" font-family="Times,serif" font-size="14.00">0</text>
</g>
<!-- id0_collections -->
<g id="node4" class="node">
<title>id0_collections</title>
<ellipse fill="none" stroke="black" cx="114.19" cy="-306" rx="59.59" ry="18"/>
<text text-anchor="middle" x="114.19" y="-302.3" font-family="Times,serif" font-size="14.00">collections</text>
</g>
<!-- id0&#45;&gt;id0_collections -->
<g id="edge1" class="edge">
<title>id0&#45;&gt;id0_collections</title>
<path fill="none" stroke="black" d="M114.19,-359.7C114.19,-351.98 114.19,-342.71 114.19,-334.11"/>
<polygon fill="black" stroke="black" points="117.7,-334.1 114.19,-324.1 110.7,-334.1 117.7,-334.1"/>
</g>
<!-- id1 -->
<g id="node2" class="node">
<title>id1</title>
<polygon fill="none" stroke="black" points="72.19,-252 45.19,-234 72.19,-216 99.19,-234 72.19,-252"/>
<text text-anchor="middle" x="72.19" y="-230.3" font-family="Times,serif" font-size="14.00">1</text>
</g>
<!-- id1_hash_map -->
<g id="node5" class="node">
<title>id1_hash_map</title>
<ellipse fill="none" stroke="black" cx="57.19" cy="-162" rx="57.39" ry="18"/>
<text text-anchor="middle" x="57.19" y="-158.3" font-family="Times,serif" font-size="14.00">hash_map</text>
</g>
<!-- id1&#45;&gt;id1_hash_map -->
<g id="edge2" class="edge">
<title>id1&#45;&gt;id1_hash_map</title>
<path fill="none" stroke="black" d="M68.94,-217.81C67.19,-209.66 64.99,-199.37 62.96,-189.92"/>
<polygon fill="black" stroke="black" points="66.38,-189.17 60.86,-180.13 59.54,-190.64 66.38,-189.17"/>
</g>
<!-- id2 -->
<g id="node3" class="node">
<title>id2</title>
<polygon fill="none" stroke="black" points="99.19,-108 72.19,-90 99.19,-72 126.19,-90 99.19,-108"/>
<text text-anchor="middle" x="99.19" y="-86.3" font-family="Times,serif" font-size="14.00">2</text>
</g>
<!-- id2_HashMap -->
<g id="node6" class="node">
<title>id2_HashMap</title>
<ellipse fill="none" stroke="black" cx="99.19" cy="-18" rx="55.49" ry="18"/>
<text text-anchor="middle" x="99.19" y="-14.3" font-family="Times,serif" font-size="14.00">HashMap</text>
</g>
<!-- id2&#45;&gt;id2_HashMap -->
<g id="edge3" class="edge">
<title>id2&#45;&gt;id2_HashMap</title>
<path fill="none" stroke="black" d="M99.19,-71.7C99.19,-63.98 99.19,-54.71 99.19,-46.11"/>
<polygon fill="black" stroke="black" points="102.7,-46.1 99.19,-36.1 95.7,-46.1 102.7,-46.1"/>
</g>
<!-- id0_collections&#45;&gt;id1 -->
<g id="edge4" class="edge">
<title>id0_collections&#45;&gt;id1</title>
<path fill="none" stroke="black" d="M104.03,-288.05C98.23,-278.39 90.91,-266.19 84.76,-255.93"/>
<polygon fill="black" stroke="black" points="87.65,-253.96 79.5,-247.18 81.65,-257.56 87.65,-253.96"/>
</g>
<!-- id0_collections&#45;&gt;id2 -->
<g id="edge5" class="edge">
<title>id0_collections&#45;&gt;id2</title>
<path fill="none" stroke="black" d="M118.11,-287.85C124.24,-258.16 134.3,-195.45 123.19,-144 120.85,-133.15 116.1,-121.86 111.44,-112.5"/>
<polygon fill="black" stroke="black" points="114.48,-110.75 106.72,-103.54 108.29,-114.02 114.48,-110.75"/>
</g>
<!-- id1_hash_map&#45;&gt;id2 -->
<g id="edge6" class="edge">
<title>id1_hash_map&#45;&gt;id2</title>
<path fill="none" stroke="black" d="M67.36,-144.05C73.16,-134.39 80.48,-122.19 86.63,-111.93"/>
<polygon fill="black" stroke="black" points="89.74,-113.56 91.89,-103.18 83.74,-109.96 89.74,-113.56"/>
</g>
</g>
</svg>
