<?xml version="1.0" encoding="UTF-8" standalone="no"?>
<!DOCTYPE svg PUBLIC "-//W3C//DTD SVG 1.1//EN"
 "http://www.w3.org/Graphics/SVG/1.1/DTD/svg11.dtd">
<!-- Generated by graphviz version 2.43.0 (0)
 -->
<!-- Title: %3 Pages: 1 -->
<svg width="250pt" height="404pt"
 viewBox="0.00 0.00 250.44 404.00" xmlns="http://www.w3.org/2000/svg" xmlns:xlink="http://www.w3.org/1999/xlink">
<g id="graph0" class="graph" transform="scale(1 1) rotate(0) translate(4 400)">
<title>%3</title>
<polygon fill="white" stroke="transparent" points="-4,4 -4,-400 246.44,-400 246.44,4 -4,4"/>
<!-- id0 -->
<g id="node1" class="node">
<title>id0</title>
<polygon fill="none" stroke="black" points="121.19,-396 94.19,-378 121.19,-360 148.19,-378 121.19,-396"/>
<text text-anchor="middle" x="121.19" y="-374.3" font-family="Times,serif" font-size="14.00">0</text>
</g>
<!-- id0_collections -->
<g id="node5" class="node">
<title>id0_collections</title>
<ellipse fill="none" stroke="black" cx="121.19" cy="-306" rx="59.59" ry="18"/>
<text text-anchor="middle" x="121.19" y="-302.3" font-family="Times,serif" font-size="14.00">collections</text>
</g>
<!-- id0&#45;&gt;id0_collections -->
<g id="edge1" class="edge">
<title>id0&#45;&gt;id0_collections</title>
<path fill="none" stroke="black" d="M121.19,-359.7C121.19,-351.98 121.19,-342.71 121.19,-334.11"/>
<polygon fill="black" stroke="black" points="124.7,-334.1 121.19,-324.1 117.7,-334.1 124.7,-334.1"/>
</g>
<!-- id1 -->
<g id="node2" class="node">
<title>id1</title>
<polygon fill="none" stroke="black" points="71.19,-252 44.19,-234 71.19,-216 98.19,-234 71.19,-252"/>
<text text-anchor="middle" x="71.19" y="-230.3" font-family="Times,serif" font-size="14.00">1</text>
</g>
<!-- id1_hash_map -->
<g id="node6" class="node">
<title>id1_hash_map</title>
<ellipse fill="none" stroke="black" cx="57.19" cy="-162" rx="57.39" ry="18"/>
<text text-anchor="middle" x="57.19" y="-158.3" font-family="Times,serif" font-size="14.00">hash_map</text>
</g>
<!-- id1&#45;&gt;id1_hash_map -->
<g id="edge2" class="edge">
<title>id1&#45;&gt;id1_hash_map</title>
<path fill="none" stroke="black" d="M68.16,-217.81C66.54,-209.75 64.51,-199.59 62.64,-190.22"/>
<polygon fill="black" stroke="black" points="66.01,-189.25 60.62,-180.13 59.15,-190.62 66.01,-189.25"/>
</g>
<!-- id2 -->
<g id="node3" class="node">
<title>id2</title>
<polygon fill="none" stroke="black" points="172.19,-252 145.19,-234 172.19,-216 199.19,-234 172.19,-252"/>
<text text-anchor="middle" x="172.19" y="-230.3" font-family="Times,serif" font-size="14.00">2</text>
</g>
<!-- id2_HashMap -->
<g id="node7" class="node">
<title>id2_HashMap</title>
<ellipse fill="none" stroke="black" cx="187.19" cy="-162" rx="55.49" ry="18"/>
<text text-anchor="middle" x="187.19" y="-158.3" font-family="Times,serif" font-size="14.00">HashMap</text>
</g>
<!-- id2&#45;&gt;id2_HashMap -->
<g id="edge3" class="edge">
<title>id2&#45;&gt;id2_HashMap</title>
<path fill="none" stroke="black" d="M175.45,-217.81C177.2,-209.66 179.4,-199.37 181.43,-189.92"/>
<polygon fill="black" stroke="black" points="184.85,-190.64 183.52,-180.13 178.01,-189.17 184.85,-190.64"/>
</g>
<!-- id3 -->
<g id="node4" class="node">
<title>id3</title>
<polygon fill="none" stroke="black" points="57.19,-108 30.19,-90 57.19,-72 84.19,-90 57.19,-108"/>
<text text-anchor="middle" x="57.19" y="-86.3" font-family="Times,serif" font-size="14.00">3</text>
</g>
<!-- id3_HashMap -->
<g id="node8" class="node">
<title>id3_HashMap</title>
<ellipse fill="none" stroke="black" cx="57.19" cy="-18" rx="55.49" ry="18"/>
<text text-anchor="middle" x="57.19" y="-14.3" font-family="Times,serif" font-size="14.00">HashMap</text>
</g>
<!-- id3&#45;&gt;id3_HashMap -->
<g id="edge4" class="edge">
<title>id3&#45;&gt;id3_HashMap</title>
<path fill="none" stroke="black" d="M57.19,-71.7C57.19,-63.98 57.19,-54.71 57.19,-46.11"/>
<polygon fill="black" stroke="black" points="60.7,-46.1 57.19,-36.1 53.7,-46.1 60.7,-46.1"/>
</g>
<!-- id0_collections&#45;&gt;id1 -->
<g id="edge5" class="edge">
<title>id0_collections&#45;&gt;id1</title>
<path fill="none" stroke="black" d="M109.09,-288.05C101.96,-278.07 92.89,-265.37 85.42,-254.91"/>
<polygon fill="black" stroke="black" points="88.25,-252.85 79.59,-246.75 82.55,-256.92 88.25,-252.85"/>
</g>
<!-- id0_collections&#45;&gt;id2 -->
<g id="edge6" class="edge">
<title>id0_collections&#45;&gt;id2</title>
<path fill="none" stroke="black" d="M133.54,-288.05C140.82,-278.07 150.06,-265.37 157.69,-254.91"/>
<polygon fill="black" stroke="black" points="160.57,-256.89 163.63,-246.75 154.92,-252.77 160.57,-256.89"/>
</g>
<!-- id1_hash_map&#45;&gt;id3 -->
<g id="edge7" class="edge">
<title>id1_hash_map&#45;&gt;id3</title>
<path fill="none" stroke="black" d="M57.19,-143.7C57.19,-135.98 57.19,-126.71 57.19,-118.11"/>
<polygon fill="black" stroke="black" points="60.7,-118.1 57.19,-108.1 53.7,-118.1 60.7,-118.1"/>
</g>
</g>
</svg>
