<?xml version="1.0" encoding="UTF-8" standalone="no"?>
<!DOCTYPE svg PUBLIC "-//W3C//DTD SVG 1.1//EN"
 "http://www.w3.org/Graphics/SVG/1.1/DTD/svg11.dtd">
<!-- Generated by graphviz version 2.43.0 (0)
 -->
<!-- Title: %3 Pages: 1 -->
<svg width="162pt" height="188pt"
 viewBox="0.00 0.00 162.44 188.00" xmlns="http://www.w3.org/2000/svg" xmlns:xlink="http://www.w3.org/1999/xlink">
<g id="graph0" class="graph" transform="scale(1 1) rotate(0) translate(4 184)">
<title>%3</title>
<polygon fill="white" stroke="transparent" points="-4,4 -4,-184 158.44,-184 158.44,4 -4,4"/>
<!-- root -->
<g id="node1" class="node">
<title>root</title>
<ellipse fill="none" stroke="black" cx="99.19" cy="-162" rx="29.8" ry="18"/>
<text text-anchor="middle" x="99.19" y="-158.3" font-family="Times,serif" font-size="14.00">root</text>
</g>
<!-- hash_map -->
<g id="node2" class="node">
<title>hash_map</title>
<ellipse fill="none" stroke="black" cx="57.19" cy="-90" rx="57.39" ry="18"/>
<text text-anchor="middle" x="57.19" y="-86.3" font-family="Times,serif" font-size="14.00">hash_map</text>
</g>
<!-- root&#45;&gt;hash_map -->
<g id="edge1" class="edge">
<title>root&#45;&gt;hash_map</title>
<path fill="none" stroke="black" d="M89.45,-144.76C84.46,-136.44 78.26,-126.1 72.63,-116.73"/>
<polygon fill="black" stroke="black" points="75.62,-114.9 67.47,-108.12 69.61,-118.5 75.62,-114.9"/>
</g>
<!-- HashMap -->
<g id="node3" class="node">
<title>HashMap</title>
<ellipse fill="none" stroke="black" cx="99.19" cy="-18" rx="55.49" ry="18"/>
<text text-anchor="middle" x="99.19" y="-14.3" font-family="Times,serif" font-size="14.00">HashMap</text>
</g>
<!-- root&#45;&gt;HashMap -->
<g id="edge3" class="edge">
<title>root&#45;&gt;HashMap</title>
<path fill="none" stroke="black" stroke-dasharray="1,5" d="M108.65,-144.92C114.09,-134.72 120.38,-121.03 123.19,-108 126.57,-92.36 126.57,-87.64 123.19,-72 121.23,-62.92 117.58,-53.52 113.71,-45.2"/>
<polygon fill="black" stroke="black" points="116.73,-43.42 109.15,-36.02 110.46,-46.53 116.73,-43.42"/>
</g>
<!-- hash_map&#45;&gt;HashMap -->
<g id="edge2" class="edge">
<title>hash_map&#45;&gt;HashMap</title>
<path fill="none" stroke="black" d="M67.36,-72.05C72.31,-63.8 78.37,-53.7 83.87,-44.54"/>
<polygon fill="black" stroke="black" points="86.98,-46.16 89.12,-35.79 80.98,-42.56 86.98,-46.16"/>
</g>
</g>
</svg>
