<?xml version="1.0" encoding="UTF-8" standalone="no"?>
<!DOCTYPE svg PUBLIC "-//W3C//DTD SVG 1.1//EN"
 "http://www.w3.org/Graphics/SVG/1.1/DTD/svg11.dtd">
<!-- Generated by graphviz version 2.43.0 (0)
 -->
<!-- Title: %3 Pages: 1 -->
<svg width="250pt" height="188pt"
 viewBox="0.00 0.00 250.44 188.00" xmlns="http://www.w3.org/2000/svg" xmlns:xlink="http://www.w3.org/1999/xlink">
<g id="graph0" class="graph" transform="scale(1 1) rotate(0) translate(4 184)">
<title>%3</title>
<polygon fill="white" stroke="transparent" points="-4,4 -4,-184 246.44,-184 246.44,4 -4,4"/>
<!-- hm_root -->
<g id="node1" class="node">
<title>hm_root</title>
<ellipse fill="none" stroke="black" cx="55.25" cy="-90" rx="55.49" ry="18"/>
<text text-anchor="middle" x="55.25" y="-86.3" font-family="Times,serif" font-size="14.00">HashMap</text>
</g>
<!-- hm_mod -->
<g id="node2" class="node">
<title>hm_mod</title>
<ellipse fill="none" stroke="black" cx="185.25" cy="-18" rx="55.49" ry="18"/>
<text text-anchor="middle" x="185.25" y="-14.3" font-family="Times,serif" font-size="14.00">HashMap</text>
</g>
<!-- root -->
<g id="node3" class="node">
<title>root</title>
<ellipse fill="none" stroke="black" cx="120.25" cy="-162" rx="29.8" ry="18"/>
<text text-anchor="middle" x="120.25" y="-158.3" font-family="Times,serif" font-size="14.00">root</text>
</g>
<!-- root&#45;&gt;hm_root -->
<g id="edge3" class="edge">
<title>root&#45;&gt;hm_root</title>
<path fill="none" stroke="black" d="M106.14,-145.81C97.81,-136.84 87.07,-125.28 77.61,-115.09"/>
<polygon fill="black" stroke="black" points="80.05,-112.57 70.69,-107.63 74.92,-117.34 80.05,-112.57"/>
</g>
<!-- hash_map -->
<g id="node4" class="node">
<title>hash_map</title>
<ellipse fill="none" stroke="black" cx="185.25" cy="-90" rx="57.39" ry="18"/>
<text text-anchor="middle" x="185.25" y="-86.3" font-family="Times,serif" font-size="14.00">hash_map</text>
</g>
<!-- root&#45;&gt;hash_map -->
<g id="edge1" class="edge">
<title>root&#45;&gt;hash_map</title>
<path fill="none" stroke="black" d="M134.35,-145.81C142.68,-136.84 153.42,-125.28 162.88,-115.09"/>
<polygon fill="black" stroke="black" points="165.57,-117.34 169.8,-107.63 160.44,-112.57 165.57,-117.34"/>
</g>
<!-- hash_map&#45;&gt;hm_mod -->
<g id="edge2" class="edge">
<title>hash_map&#45;&gt;hm_mod</title>
<path fill="none" stroke="black" d="M185.25,-71.7C185.25,-63.98 185.25,-54.71 185.25,-46.11"/>
<polygon fill="black" stroke="black" points="188.75,-46.1 185.25,-36.1 181.75,-46.1 188.75,-46.1"/>
</g>
</g>
</svg>
