<?xml version="1.0" encoding="UTF-8" standalone="no"?>
<!DOCTYPE svg PUBLIC "-//W3C//DTD SVG 1.1//EN"
 "http://www.w3.org/Graphics/SVG/1.1/DTD/svg11.dtd">
<!-- Generated by graphviz version 2.43.0 (0)
 -->
<!-- Title: %3 Pages: 1 -->
<svg width="638pt" height="188pt"
 viewBox="0.00 0.00 637.58 188.00" xmlns="http://www.w3.org/2000/svg" xmlns:xlink="http://www.w3.org/1999/xlink">
<g id="graph0" class="graph" transform="scale(1 1) rotate(0) translate(4 184)">
<title>%3</title>
<polygon fill="white" stroke="transparent" points="-4,4 -4,-184 633.58,-184 633.58,4 -4,4"/>
<!-- world -->
<g id="node1" class="node">
<title>world</title>
<ellipse fill="none" stroke="black" cx="311" cy="-162" rx="37.09" ry="18"/>
<text text-anchor="middle" x="311" y="-158.3" font-family="Times,serif" font-size="14.00">world</text>
</g>
<!-- usa -->
<g id="node2" class="node">
<title>usa</title>
<ellipse fill="none" stroke="black" cx="186" cy="-90" rx="27" ry="18"/>
<text text-anchor="middle" x="186" y="-86.3" font-family="Times,serif" font-size="14.00">usa</text>
</g>
<!-- world&#45;&gt;usa -->
<g id="edge1" class="edge">
<title>world&#45;&gt;usa</title>
<path fill="none" stroke="black" d="M287.48,-147.83C266.94,-136.33 237.04,-119.58 215.01,-107.25"/>
<polygon fill="black" stroke="black" points="216.54,-104.09 206.1,-102.26 213.12,-110.2 216.54,-104.09"/>
</g>
<!-- china -->
<g id="node3" class="node">
<title>china</title>
<ellipse fill="none" stroke="black" cx="311" cy="-90" rx="36" ry="18"/>
<text text-anchor="middle" x="311" y="-86.3" font-family="Times,serif" font-size="14.00">china</text>
</g>
<!-- world&#45;&gt;china -->
<g id="edge2" class="edge">
<title>world&#45;&gt;china</title>
<path fill="none" stroke="black" d="M311,-143.7C311,-135.98 311,-126.71 311,-118.11"/>
<polygon fill="black" stroke="black" points="314.5,-118.1 311,-108.1 307.5,-118.1 314.5,-118.1"/>
</g>
<!-- InternationalSpaceStation -->
<g id="node4" class="node">
<title>InternationalSpaceStation</title>
<ellipse fill="none" stroke="black" cx="497" cy="-90" rx="132.68" ry="18"/>
<text text-anchor="middle" x="497" y="-86.3" font-family="Times,serif" font-size="14.00">InternationalSpaceStation</text>
</g>
<!-- world&#45;&gt;InternationalSpaceStation -->
<g id="edge3" class="edge">
<title>world&#45;&gt;InternationalSpaceStation</title>
<path fill="none" stroke="black" d="M339.65,-150.22C367.47,-139.74 410.37,-123.6 444.35,-110.81"/>
<polygon fill="black" stroke="black" points="446,-113.93 454.13,-107.13 443.54,-107.38 446,-113.93"/>
</g>
<!-- NewYork -->
<g id="node5" class="node">
<title>NewYork</title>
<ellipse fill="none" stroke="black" cx="52" cy="-18" rx="51.99" ry="18"/>
<text text-anchor="middle" x="52" y="-14.3" font-family="Times,serif" font-size="14.00">NewYork</text>
</g>
<!-- usa&#45;&gt;NewYork -->
<g id="edge4" class="edge">
<title>usa&#45;&gt;NewYork</title>
<path fill="none" stroke="black" d="M165.35,-78.22C144.91,-67.54 113.18,-50.96 88.48,-38.06"/>
<polygon fill="black" stroke="black" points="89.88,-34.84 79.4,-33.32 86.64,-41.05 89.88,-34.84"/>
</g>
<!-- LosAngeles -->
<g id="node6" class="node">
<title>LosAngeles</title>
<ellipse fill="none" stroke="black" cx="186" cy="-18" rx="63.89" ry="18"/>
<text text-anchor="middle" x="186" y="-14.3" font-family="Times,serif" font-size="14.00">LosAngeles</text>
</g>
<!-- usa&#45;&gt;LosAngeles -->
<g id="edge5" class="edge">
<title>usa&#45;&gt;LosAngeles</title>
<path fill="none" stroke="black" d="M186,-71.7C186,-63.98 186,-54.71 186,-46.11"/>
<polygon fill="black" stroke="black" points="189.5,-46.1 186,-36.1 182.5,-46.1 189.5,-46.1"/>
</g>
<!-- Beijing -->
<g id="node7" class="node">
<title>Beijing</title>
<ellipse fill="none" stroke="black" cx="311" cy="-18" rx="43.59" ry="18"/>
<text text-anchor="middle" x="311" y="-14.3" font-family="Times,serif" font-size="14.00">Beijing</text>
</g>
<!-- china&#45;&gt;Beijing -->
<g id="edge6" class="edge">
<title>china&#45;&gt;Beijing</title>
<path fill="none" stroke="black" d="M311,-71.7C311,-63.98 311,-54.71 311,-46.11"/>
<polygon fill="black" stroke="black" points="314.5,-46.1 311,-36.1 307.5,-46.1 314.5,-46.1"/>
</g>
<!-- Shanghai -->
<g id="node8" class="node">
<title>Shanghai</title>
<ellipse fill="none" stroke="black" cx="426" cy="-18" rx="53.89" ry="18"/>
<text text-anchor="middle" x="426" y="-14.3" font-family="Times,serif" font-size="14.00">Shanghai</text>
</g>
<!-- china&#45;&gt;Shanghai -->
<g id="edge7" class="edge">
<title>china&#45;&gt;Shanghai</title>
<path fill="none" stroke="black" d="M332.9,-75.67C349.66,-65.46 373.08,-51.21 392.24,-39.55"/>
<polygon fill="black" stroke="black" points="394.25,-42.42 400.98,-34.23 390.61,-36.44 394.25,-42.42"/>
</g>
</g>
</svg>
